<svg width="30" height="44" viewBox="0 0 30 44" fill="none" xmlns="http://www.w3.org/2000/svg">
<g clip-path="url(#clip0_1_980)">
<path fill-rule="evenodd" clip-rule="evenodd" d="M20.9688 25.9C20.9688 26.5 20.4688 27 19.8687 27H11.0687C10.4687 27 9.96875 26.5 9.96875 25.9V18C9.96875 17.5 10.4687 17 11.0687 17H19.9688C20.5688 17 21.0688 17.5 21.0688 18.1V25.9H20.9688ZM15.4688 14C16.6687 14 17.5688 14.9 17.7688 16H13.1687C13.3687 14.9 14.2688 14 15.4688 14ZM19.8687 16H18.7688C18.5688 14.3 17.1687 13 15.4688 13C13.7688 13 12.3688 14.3 12.1688 16H11.0687C9.86875 16 8.96875 16.9 8.96875 18.1V26C8.96875 27.1 9.86875 28 11.0687 28H19.9688C21.0688 28 22.0688 27.1 22.0688 25.9V18C21.9688 16.9 21.0687 16 19.8687 16Z" fill="white"/>
</g>
<defs>
<clipPath id="clip0_1_980">
<rect width="13" height="44" fill="white" transform="translate(8.96875)"/>
</clipPath>
</defs>
</svg>
