<svg width="30" height="44" viewBox="0 0 30 44" fill="none" xmlns="http://www.w3.org/2000/svg">
<g clip-path="url(#clip0_1_924)">
<path d="M21.0729 17.5214C20.9799 17.5937 19.3481 18.5129 19.3481 20.5578C19.3481 22.9229 21.424 23.7595 21.486 23.7801C21.4757 23.8317 21.1555 24.9265 20.3912 26.0419C19.7096 27.0231 18.9969 28.0042 17.9125 28.0042C16.8281 28.0042 16.5492 27.3742 15.2995 27.3742C14.0808 27.3742 13.647 28.0249 12.6555 28.0249C11.664 28.0249 10.972 27.116 10.1768 26.0006C9.25761 24.6889 8.51401 22.6543 8.51401 20.723C8.51401 17.6246 10.528 15.9824 12.5109 15.9824C13.5644 15.9824 14.4422 16.6744 15.1032 16.6744C15.7332 16.6744 16.7144 15.9411 17.9124 15.9411C18.3669 15.9412 19.9988 15.9826 21.0729 17.5214ZM17.3445 14.6296C17.8402 14.0409 18.1914 13.225 18.1914 12.4091C18.1914 12.2955 18.1811 12.1819 18.1604 12.0889C17.3548 12.1199 16.3943 12.626 15.8159 13.2973C15.3615 13.8137 14.938 14.6296 14.938 15.4559C14.938 15.5798 14.9587 15.7038 14.969 15.7451C15.0206 15.7554 15.1033 15.7658 15.1859 15.7658C15.9089 15.7657 16.8177 15.2803 17.3445 14.6296Z" fill="white"/>
</g>
<defs>
<clipPath id="clip0_1_924">
<rect width="14" height="44" fill="white" transform="translate(8)"/>
</clipPath>
</defs>
</svg>
