<svg width="32" height="88" viewBox="0 0 32 88" fill="none" xmlns="http://www.w3.org/2000/svg">
<g clip-path="url(#clip0_1_974)">
<path d="M22.1987 27.3428L18.6987 23.8428C19.5804 22.763 20.0136 21.3857 19.9086 19.9956C19.8037 18.6055 19.1687 17.3088 18.1349 16.3736C17.1011 15.4383 15.7475 14.936 14.3539 14.9704C12.9603 15.0048 11.6331 15.5733 10.6467 16.5584C9.66032 17.5436 9.0901 18.87 9.0539 20.2636C9.0177 21.6572 9.51828 23.0114 10.4522 24.0464C11.3861 25.0814 12.682 25.7181 14.0719 25.8248C15.4619 25.9315 16.8398 25.5001 17.9207 24.6198L21.4207 28.1198C21.4718 28.1709 21.5325 28.2114 21.5992 28.2391C21.6659 28.2667 21.7375 28.281 21.8097 28.281C21.882 28.281 21.9535 28.2667 22.0203 28.2391C22.087 28.2114 22.1476 28.1709 22.1987 28.1198C22.2498 28.0687 22.2903 28.0081 22.318 27.9414C22.3456 27.8746 22.3599 27.8031 22.3599 27.7308C22.3599 27.6586 22.3456 27.5871 22.318 27.5203C22.2903 27.4536 22.2498 27.3929 22.1987 27.3418V27.3428ZM10.1777 20.4178C10.1779 19.5637 10.4314 18.7287 10.9061 18.0186C11.3808 17.3085 12.0554 16.7551 12.8446 16.4283C13.6338 16.1016 14.5022 16.0162 15.3399 16.1829C16.1777 16.3497 16.9472 16.7611 17.5511 17.3652C18.155 17.9693 18.5662 18.7388 18.7328 19.5766C18.8994 20.4144 18.8138 21.2827 18.4869 22.0719C18.1599 22.861 17.6064 23.5355 16.8961 24.01C16.1859 24.4846 15.3509 24.7378 14.4967 24.7378C13.3514 24.7368 12.2533 24.2813 11.4436 23.4713C10.6338 22.6613 10.1785 21.5632 10.1777 20.4178Z" fill="white"/>
<path d="M22.1987 71.5928L18.6987 68.0928C19.5804 67.013 20.0136 65.6357 19.9086 64.2456C19.8037 62.8555 19.1687 61.5588 18.1349 60.6236C17.1011 59.6883 15.7475 59.186 14.3539 59.2204C12.9603 59.2548 11.6331 59.8233 10.6467 60.8084C9.66032 61.7936 9.0901 63.12 9.0539 64.5136C9.0177 65.9072 9.51828 67.2614 10.4522 68.2964C11.3861 69.3314 12.682 69.9681 14.0719 70.0748C15.4619 70.1815 16.8398 69.7501 17.9207 68.8698L21.4207 72.3698C21.5239 72.473 21.6638 72.531 21.8097 72.531C21.9556 72.531 22.0956 72.473 22.1987 72.3698C22.3019 72.2667 22.3599 72.1267 22.3599 71.9808C22.3599 71.8349 22.3019 71.695 22.1987 71.5918V71.5928ZM10.1777 64.6678C10.1779 63.8137 10.4314 62.9787 10.9061 62.2686C11.3808 61.5585 12.0554 61.0051 12.8446 60.6783C13.6338 60.3516 14.5022 60.2662 15.3399 60.4329C16.1777 60.5997 16.9472 61.0111 17.5511 61.6152C18.155 62.2193 18.5662 62.9888 18.7328 63.8266C18.8994 64.6644 18.8138 65.5327 18.4869 66.3219C18.1599 67.111 17.6064 67.7855 16.8961 68.26C16.1859 68.7346 15.3509 68.9878 14.4967 68.9878C13.3514 68.9868 12.2533 68.5313 11.4436 67.7213C10.6338 66.9114 10.1785 65.8132 10.1777 64.6678Z" fill="#86868B"/>
</g>
<defs>
<clipPath id="clip0_1_974">
<rect width="15" height="88" fill="white" transform="translate(8.21875)"/>
</clipPath>
</defs>
</svg>
